# xmcd
#
# Track frame offsets: 
#        150
#        12890
#        27620
#        43857
#        57520
#        75492
#        93417
#        110857
#        125585
#        142115
#        161547
#        177880
#        194180
#        213065
#        231430
#        249652
#        264252
#
# Disc length: 3780 seconds
#
# Revision: 0
# Processed by: cddbd v1.5.2PL0 Copyright (c) Steve Scherf et al.
# Submitted via: ExactAudioCopy v1.0b3
#
DISCID=fa0ec211
DTITLE=Various Artist - Hot Country
DYEAR=2001
DGENRE=Country
TTITLE0=Pour Me
TTITLE1=Ain't Nothing 'Bout You
TTITLE2=If My Heart Had Wings
TTITLE3=If I Fall You're Going Down With Me
TTITLE4=But For The Grace of God
TTITLE5=There Is No Arizona
TTITLE6=Just Another Day In Paradise
TTITLE7=But I Do Love You
TTITLE8=You Shouldn't Kiss Me Like This
TTITLE9=Burn
TTITLE10=Grown Men Don't Cry
TTITLE11=One More Day
TTITLE12=It's A Great Day To Be Alive
TTITLE13=Who I Am
TTITLE14=I Could Not Ask For More
TTITLE15=When Somebody Loves You
TTITLE16=Murder On Music Row
EXTD=
EXTT0=
EXTT1=
EXTT2=
EXTT3=
EXTT4=
EXTT5=
EXTT6=
EXTT7=
EXTT8=
EXTT9=
EXTT10=
EXTT11=
EXTT12=
EXTT13=
EXTT14=
EXTT15=
EXTT16=
PLAYORDER=
